<?xml version="1.0" encoding="UTF-8" standalone="no"?><!DOCTYPE svg PUBLIC "-//W3C//DTD SVG 1.1//EN" "http://www.w3.org/Graphics/SVG/1.1/DTD/svg11.dtd"><svg width="100%" height="100%" viewBox="0 0 364 279" version="1.1" xmlns="http://www.w3.org/2000/svg" xmlns:xlink="http://www.w3.org/1999/xlink" xml:space="preserve" xmlns:serif="http://www.serif.com/" style="fill-rule:evenodd;clip-rule:evenodd;stroke-linecap:round;stroke-linejoin:round;stroke-miterlimit:1.5;"><g><path d="M84.8,109.957c0,-11.65 -9.458,-21.108 -21.108,-21.108l-42.217,0c-11.65,0 -21.108,9.458 -21.108,21.108l0,45.687c0,11.65 9.458,21.108 21.108,21.108l42.217,0c11.65,0 21.108,-9.458 21.108,-21.108l0,-45.687Z" style="fill:#ebebeb;stroke:#000;stroke-width:0.73px;"/><text x="29.282px" y="146.68px" style="font-family:'ArialMT', 'Arial', sans-serif;font-size:43.597px;">1</text></g><g><path d="M223.596,109.614c0,-11.65 -9.459,-21.109 -21.109,-21.109l-42.217,0c-11.65,0 -21.108,9.459 -21.108,21.109l0,45.686c0,11.65 9.458,21.109 21.108,21.109l42.217,0c11.65,0 21.109,-9.459 21.109,-21.109l0,-45.686Z" style="fill:#ebebeb;stroke:#000;stroke-width:0.73px;"/><text x="168.078px" y="146.337px" style="font-family:'ArialMT', 'Arial', sans-serif;font-size:43.597px;">2</text></g><g><path d="M363.141,21.475c0,-11.65 -9.459,-21.108 -21.109,-21.108l-42.217,0c-11.65,0 -21.108,9.458 -21.108,21.108l0,45.687c0,11.65 9.458,21.108 21.108,21.108l42.217,0c11.65,0 21.109,-9.458 21.109,-21.108l0,-45.687Z" style="fill:#ebebeb;stroke:#000;stroke-width:0.73px;"/><text x="307.623px" y="58.198px" style="font-family:'ArialMT', 'Arial', sans-serif;font-size:43.597px;">3</text></g><g><path d="M363.141,211.769c0,-11.65 -9.459,-21.109 -21.109,-21.109l-42.217,0c-11.65,0 -21.108,9.459 -21.108,21.109l0,45.686c0,11.65 9.458,21.109 21.108,21.109l42.217,0c11.65,0 21.109,-9.459 21.109,-21.109l0,-45.686Z" style="fill:#ebebeb;stroke:#000;stroke-width:0.73px;"/><text x="307.623px" y="248.492px" style="font-family:'ArialMT', 'Arial', sans-serif;font-size:43.597px;">5</text></g><g><path d="M363.141,115.019c0,-11.65 -9.459,-21.109 -21.109,-21.109l-42.217,0c-11.65,0 -21.108,9.459 -21.108,21.109l0,45.686c0,11.65 9.458,21.109 21.108,21.109l42.217,0c11.65,0 21.109,-9.459 21.109,-21.109l0,-45.686Z" style="fill:#ebebeb;stroke:#000;stroke-width:0.73px;"/><text x="307.623px" y="151.742px" style="font-family:'ArialMT', 'Arial', sans-serif;font-size:43.597px;">4</text></g><path d="M84.8,131.3l54.362,0" style="fill:none;stroke:#000;stroke-width:1px;"/><path d="M222.096,165.202l56.717,44.438" style="fill:none;stroke:#000;stroke-width:1px;"/><path d="M223.596,120.064l54.836,-53.523" style="fill:none;stroke:#000;stroke-width:1px;"/><path d="M223.596,137.862l54.836,0" style="fill:none;stroke:#000;stroke-width:1px;"/></svg>