<?xml version="1.0" encoding="UTF-8" standalone="no"?><!DOCTYPE svg PUBLIC "-//W3C//DTD SVG 1.1//EN" "http://www.w3.org/Graphics/SVG/1.1/DTD/svg11.dtd"><svg width="100%" height="100%" viewBox="0 0 499 204" version="1.1" xmlns="http://www.w3.org/2000/svg" xmlns:xlink="http://www.w3.org/1999/xlink" xml:space="preserve" xmlns:serif="http://www.serif.com/" style="fill-rule:evenodd;clip-rule:evenodd;stroke-linecap:round;stroke-linejoin:round;stroke-miterlimit:1.5;"><g><path d="M84.8,88.614c0,-11.65 -9.458,-21.109 -21.108,-21.109l-42.217,0c-11.65,0 -21.108,9.459 -21.108,21.109l0,45.686c0,11.65 9.458,21.109 21.108,21.109l42.217,0c11.65,0 21.108,-9.459 21.108,-21.109l0,-45.686Z" style="fill:#ebebeb;stroke:#000;stroke-width:0.73px;"/><text x="29.282px" y="125.337px" style="font-family:'ArialMT', 'Arial', sans-serif;font-size:43.597px;">1</text></g><g><path d="M223.596,88.27c0,-11.65 -9.459,-21.108 -21.109,-21.108l-42.217,0c-11.65,0 -21.108,9.458 -21.108,21.108l0,45.687c0,11.65 9.458,21.108 21.108,21.108l42.217,0c11.65,0 21.109,-9.458 21.109,-21.108l0,-45.687Z" style="fill:#ebebeb;stroke:#000;stroke-width:0.73px;"/><text x="168.078px" y="124.993px" style="font-family:'ArialMT', 'Arial', sans-serif;font-size:43.597px;">2</text></g><g><path d="M363.891,21.882c0,-11.65 -9.459,-21.109 -21.109,-21.109l-42.217,0c-11.65,0 -21.108,9.459 -21.108,21.109l0,45.686c0,11.651 9.458,21.109 21.108,21.109l42.217,0c11.65,0 21.109,-9.458 21.109,-21.109l0,-45.686Z" style="fill:#ebebeb;stroke:#000;stroke-width:0.73px;"/><text x="308.373px" y="58.605px" style="font-family:'ArialMT', 'Arial', sans-serif;font-size:43.597px;">3</text></g><g><path d="M492.466,136.425c0,-11.65 -9.458,-21.108 -21.108,-21.108l-42.217,0c-11.65,0 -21.109,9.458 -21.109,21.108l0,45.687c0,11.65 9.459,21.108 21.109,21.108l42.217,0c11.65,0 21.108,-9.458 21.108,-21.108l0,-45.687Z" style="fill:#ebebeb;stroke:#000;stroke-width:0.73px;"/><text x="436.948px" y="173.148px" style="font-family:'ArialMT', 'Arial', sans-serif;font-size:43.597px;">5</text></g><g><path d="M362.391,136.425c0,-11.65 -9.459,-21.108 -21.109,-21.108l-42.217,0c-11.65,0 -21.108,9.458 -21.108,21.108l0,45.687c0,11.65 9.458,21.108 21.108,21.108l42.217,0c11.65,0 21.109,-9.458 21.109,-21.108l0,-45.687Z" style="fill:#ebebeb;stroke:#000;stroke-width:0.73px;"/><text x="306.873px" y="173.148px" style="font-family:'ArialMT', 'Arial', sans-serif;font-size:43.597px;">4</text></g><path d="M84.8,109.957l54.362,0" style="fill:none;stroke:#000;stroke-width:1px;"/><path d="M224.065,119.306l53.892,42.223" style="fill:none;stroke:#000;stroke-width:1px;"/><path d="M223.501,97.834l55.956,-54.738" style="fill:none;stroke:#000;stroke-width:1px;"/><path d="M362.391,159.269l45.641,0" style="fill:none;stroke:#000;stroke-width:1px;"/></svg>