<?xml version="1.0" encoding="UTF-8" standalone="no"?><!DOCTYPE svg PUBLIC "-//W3C//DTD SVG 1.1//EN" "http://www.w3.org/Graphics/SVG/1.1/DTD/svg11.dtd"><svg width="100%" height="100%" viewBox="0 0 364 279" version="1.1" xmlns="http://www.w3.org/2000/svg" xmlns:xlink="http://www.w3.org/1999/xlink" xml:space="preserve" xmlns:serif="http://www.serif.com/" style="fill-rule:evenodd;clip-rule:evenodd;stroke-linecap:round;stroke-linejoin:round;stroke-miterlimit:1.5;"><g><path d="M84.8,109.957c0,-11.65 -9.458,-21.108 -21.108,-21.108l-42.217,0c-11.65,0 -21.108,9.458 -21.108,21.108l0,45.687c0,11.65 9.458,21.108 21.108,21.108l42.217,0c11.65,0 21.108,-9.458 21.108,-21.108l0,-45.687Z" style="fill:#ebebeb;stroke:#000;stroke-width:0.73px;"/><text x="29.282px" y="146.68px" style="font-family:'ArialMT', 'Arial', sans-serif;font-size:43.597px;">1</text></g><g><path d="M202.596,41.364c0,-11.65 -9.459,-21.109 -21.109,-21.109l-42.217,0c-11.65,0 -21.108,9.459 -21.108,21.109l0,45.686c0,11.65 9.458,21.109 21.108,21.109l42.217,0c11.65,0 21.109,-9.459 21.109,-21.109l0,-45.686Z" style="fill:#ebebeb;stroke:#000;stroke-width:0.73px;"/><text x="147.078px" y="78.087px" style="font-family:'ArialMT', 'Arial', sans-serif;font-size:43.597px;">2</text></g><g><path d="M321.891,41.364c0,-11.65 -9.459,-21.109 -21.109,-21.109l-42.217,0c-11.65,0 -21.108,9.459 -21.108,21.109l0,45.686c0,11.65 9.458,21.109 21.108,21.109l42.217,0c11.65,0 21.109,-9.459 21.109,-21.109l0,-45.686Z" style="fill:#ebebeb;stroke:#000;stroke-width:0.73px;"/><text x="266.373px" y="78.087px" style="font-family:'ArialMT', 'Arial', sans-serif;font-size:43.597px;">3</text></g><g><path d="M321.891,188.519c0,-11.65 -9.459,-21.109 -21.109,-21.109l-42.217,0c-11.65,0 -21.108,9.459 -21.108,21.109l0,45.686c0,11.65 9.458,21.109 21.108,21.109l42.217,0c11.65,0 21.109,-9.459 21.109,-21.109l0,-45.686Z" style="fill:#ebebeb;stroke:#000;stroke-width:0.73px;"/><text x="266.373px" y="225.242px" style="font-family:'ArialMT', 'Arial', sans-serif;font-size:43.597px;">5</text></g><g><path d="M202.596,188.519c0,-11.65 -9.459,-21.109 -21.109,-21.109l-42.217,0c-11.65,0 -21.108,9.459 -21.108,21.109l0,45.686c0,11.65 9.458,21.109 21.108,21.109l42.217,0c11.65,0 21.109,-9.459 21.109,-21.109l0,-45.686Z" style="fill:#ebebeb;stroke:#000;stroke-width:0.73px;"/><text x="147.078px" y="225.242px" style="font-family:'ArialMT', 'Arial', sans-serif;font-size:43.597px;">4</text></g><path d="M202.596,62.419l34.861,0" style="fill:none;stroke:#000;stroke-width:1px;"/><path d="M202.596,211.362l34.861,0" style="fill:none;stroke:#000;stroke-width:1px;"/><path d="M84.8,149.452l36.253,28.404" style="fill:none;stroke:#000;stroke-width:1px;"/><path d="M84.8,117.41l37.596,-17.434" style="fill:none;stroke:#000;stroke-width:1px;"/></svg>