<?xml version="1.0" encoding="UTF-8" standalone="no"?><!DOCTYPE svg PUBLIC "-//W3C//DTD SVG 1.1//EN" "http://www.w3.org/Graphics/SVG/1.1/DTD/svg11.dtd"><svg width="100%" height="100%" viewBox="0 0 634 94" version="1.1" xmlns="http://www.w3.org/2000/svg" xmlns:xlink="http://www.w3.org/1999/xlink" xml:space="preserve" xmlns:serif="http://www.serif.com/" style="fill-rule:evenodd;clip-rule:evenodd;stroke-linecap:round;stroke-linejoin:round;stroke-miterlimit:1.5;"><g><path d="M84.8,22.975c0,-11.65 -9.458,-21.108 -21.108,-21.108l-42.217,0c-11.65,0 -21.108,9.458 -21.108,21.108l0,45.687c0,11.65 9.458,21.108 21.108,21.108l42.217,0c11.65,0 21.108,-9.458 21.108,-21.108l0,-45.687Z" style="fill:#ebebeb;stroke:#000;stroke-width:0.73px;"/><text x="29.282px" y="59.698px" style="font-family:'ArialMT', 'Arial', sans-serif;font-size:43.597px;">1</text></g><g><path d="M223.596,22.632c0,-11.65 -9.459,-21.109 -21.109,-21.109l-42.217,0c-11.65,0 -21.108,9.459 -21.108,21.109l0,45.686c0,11.651 9.458,21.109 21.108,21.109l42.217,0c11.65,0 21.109,-9.458 21.109,-21.109l0,-45.686Z" style="fill:#ebebeb;stroke:#000;stroke-width:0.73px;"/><text x="168.078px" y="59.355px" style="font-family:'ArialMT', 'Arial', sans-serif;font-size:43.597px;">2</text></g><g><path d="M362.391,23.038c0,-11.65 -9.459,-21.108 -21.109,-21.108l-42.217,0c-11.65,0 -21.108,9.458 -21.108,21.108l0,45.687c0,11.65 9.458,21.109 21.108,21.109l42.217,0c11.65,0 21.109,-9.459 21.109,-21.109l0,-45.687Z" style="fill:#ebebeb;stroke:#000;stroke-width:0.73px;"/><text x="306.873px" y="59.761px" style="font-family:'ArialMT', 'Arial', sans-serif;font-size:43.597px;">3</text></g><g><path d="M633.041,23.102c0,-11.65 -9.458,-21.109 -21.108,-21.109l-42.217,0c-11.65,0 -21.108,9.459 -21.108,21.109l0,45.686c0,11.65 9.458,21.109 21.108,21.109l42.217,0c11.65,0 21.108,-9.459 21.108,-21.109l0,-45.686Z" style="fill:#ebebeb;stroke:#000;stroke-width:0.73px;"/><text x="577.523px" y="59.824px" style="font-family:'ArialMT', 'Arial', sans-serif;font-size:43.597px;">5</text></g><g><path d="M497.716,23.382c0,-11.65 -9.458,-21.109 -21.108,-21.109l-42.217,0c-11.65,0 -21.109,9.459 -21.109,21.109l0,45.686c0,11.651 9.459,21.109 21.109,21.109l42.217,0c11.65,0 21.108,-9.458 21.108,-21.109l0,-45.686Z" style="fill:#ebebeb;stroke:#000;stroke-width:0.73px;"/><text x="442.198px" y="60.105px" style="font-family:'ArialMT', 'Arial', sans-serif;font-size:43.597px;">4</text></g><path d="M84.8,44.318l54.362,0" style="fill:none;stroke:#000;stroke-width:1px;"/><path d="M497.716,45.475l50.892,0" style="fill:none;stroke:#000;stroke-width:1px;"/><path d="M223.596,44.318l54.361,1.157" style="fill:none;stroke:#000;stroke-width:1px;"/><path d="M362.391,45.475l50.891,1.157" style="fill:none;stroke:#000;stroke-width:1px;"/></svg>