<?xml version="1.0" encoding="UTF-8" standalone="no"?><!DOCTYPE svg PUBLIC "-//W3C//DTD SVG 1.1//EN" "http://www.w3.org/Graphics/SVG/1.1/DTD/svg11.dtd"><svg width="100%" height="100%" viewBox="0 0 495 205" version="1.1" xmlns="http://www.w3.org/2000/svg" xmlns:xlink="http://www.w3.org/1999/xlink" xml:space="preserve" xmlns:serif="http://www.serif.com/" style="fill-rule:evenodd;clip-rule:evenodd;stroke-linecap:round;stroke-linejoin:round;stroke-miterlimit:1.5;"><g><path d="M84.8,83.913c0,-11.65 -9.458,-21.108 -21.108,-21.108l-42.217,0c-11.65,0 -21.108,9.458 -21.108,21.108l0,45.687c0,11.65 9.458,21.109 21.108,21.109l42.217,0c11.65,0 21.108,-9.459 21.108,-21.109l0,-45.687Z" style="fill:#ebebeb;stroke:#000;stroke-width:0.73px;"/><text x="29.282px" y="120.636px" style="font-family:'ArialMT', 'Arial', sans-serif;font-size:43.597px;">1</text></g><g><path d="M223.501,21.475c0,-11.65 -9.458,-21.108 -21.108,-21.108l-42.217,0c-11.65,0 -21.108,9.458 -21.108,21.108l0,45.687c0,11.65 9.458,21.108 21.108,21.108l42.217,0c11.65,0 21.108,-9.458 21.108,-21.108l0,-45.687Z" style="fill:#ebebeb;stroke:#000;stroke-width:0.73px;"/><text x="167.983px" y="58.198px" style="font-family:'ArialMT', 'Arial', sans-serif;font-size:43.597px;">2</text></g><g><path d="M223.501,137.158c0,-11.65 -9.458,-21.108 -21.108,-21.108l-42.217,0c-11.65,0 -21.108,9.458 -21.108,21.108l0,45.687c0,11.65 9.458,21.108 21.108,21.108l42.217,0c11.65,0 21.108,-9.458 21.108,-21.108l0,-45.687Z" style="fill:#ebebeb;stroke:#000;stroke-width:0.73px;"/><text x="167.983px" y="173.881px" style="font-family:'ArialMT', 'Arial', sans-serif;font-size:43.597px;">3</text></g><g><path d="M493.966,137.158c0,-11.65 -9.458,-21.108 -21.108,-21.108l-42.217,0c-11.65,0 -21.109,9.458 -21.109,21.108l0,45.687c0,11.65 9.459,21.108 21.109,21.108l42.217,0c11.65,0 21.108,-9.458 21.108,-21.108l0,-45.687Z" style="fill:#ebebeb;stroke:#000;stroke-width:0.73px;"/><text x="438.448px" y="173.881px" style="font-family:'ArialMT', 'Arial', sans-serif;font-size:43.597px;">5</text></g><g><path d="M362.391,137.158c0,-11.65 -9.459,-21.108 -21.109,-21.108l-42.217,0c-11.65,0 -21.108,9.458 -21.108,21.108l0,45.687c0,11.65 9.458,21.108 21.108,21.108l42.217,0c11.65,0 21.109,-9.458 21.109,-21.108l0,-45.687Z" style="fill:#ebebeb;stroke:#000;stroke-width:0.73px;"/><text x="306.873px" y="173.881px" style="font-family:'ArialMT', 'Arial', sans-serif;font-size:43.597px;">4</text></g><path d="M223.596,154.757l54.361,0" style="fill:none;stroke:#000;stroke-width:1px;"/><path d="M85.176,119.106l53.892,42.223" style="fill:none;stroke:#000;stroke-width:1px;"/><path d="M85.666,94.135l53.402,-51.964" style="fill:none;stroke:#000;stroke-width:1px;"/><path d="M363.891,154.757l45.641,0" style="fill:none;stroke:#000;stroke-width:1px;"/></svg>