<?xml version="1.0" encoding="UTF-8" standalone="no"?><!DOCTYPE svg PUBLIC "-//W3C//DTD SVG 1.1//EN" "http://www.w3.org/Graphics/SVG/1.1/DTD/svg11.dtd"><svg width="100%" height="100%" viewBox="0 0 361 304" version="1.1" xmlns="http://www.w3.org/2000/svg" xmlns:xlink="http://www.w3.org/1999/xlink" xml:space="preserve" xmlns:serif="http://www.serif.com/" style="fill-rule:evenodd;clip-rule:evenodd;stroke-linecap:round;stroke-linejoin:round;stroke-miterlimit:1.5;"><g><path d="M224.337,128.989c0,-11.651 -9.458,-21.109 -21.108,-21.109l-42.217,0c-11.65,0 -21.108,9.458 -21.108,21.109l0,45.686c0,11.65 9.458,21.109 21.108,21.109l42.217,0c11.65,0 21.108,-9.459 21.108,-21.109l0,-45.686Z" style="fill:#ebebeb;stroke:#000;stroke-width:0.73px;"/><text x="168.819px" y="165.711px" style="font-family:'ArialMT', 'Arial', sans-serif;font-size:43.597px;">1</text></g><g><path d="M224.337,21.475c0,-11.65 -9.458,-21.108 -21.108,-21.108l-42.217,0c-11.65,0 -21.108,9.458 -21.108,21.108l0,45.687c0,11.65 9.458,21.108 21.108,21.108l42.217,0c11.65,0 21.108,-9.458 21.108,-21.108l0,-45.687Z" style="fill:#ebebeb;stroke:#000;stroke-width:0.73px;"/><text x="168.819px" y="58.198px" style="font-family:'ArialMT', 'Arial', sans-serif;font-size:43.597px;">2</text></g><g><path d="M359.916,126.491c0,-11.65 -9.458,-21.108 -21.108,-21.108l-42.217,0c-11.65,0 -21.108,9.458 -21.108,21.108l0,45.687c0,11.65 9.458,21.108 21.108,21.108l42.217,0c11.65,0 21.108,-9.458 21.108,-21.108l0,-45.687Z" style="fill:#ebebeb;stroke:#000;stroke-width:0.73px;"/><text x="304.398px" y="163.214px" style="font-family:'ArialMT', 'Arial', sans-serif;font-size:43.597px;">3</text></g><g><path d="M84.8,128.989c0,-11.651 -9.458,-21.109 -21.108,-21.109l-42.217,0c-11.65,0 -21.108,9.458 -21.108,21.109l0,45.686c0,11.65 9.458,21.109 21.108,21.109l42.217,0c11.65,0 21.108,-9.459 21.108,-21.109l0,-45.686Z" style="fill:#ebebeb;stroke:#000;stroke-width:0.73px;"/><text x="29.282px" y="165.711px" style="font-family:'ArialMT', 'Arial', sans-serif;font-size:43.597px;">5</text></g><g><path d="M224.337,236.502c0,-11.65 -9.458,-21.108 -21.108,-21.108l-42.217,0c-11.65,0 -21.108,9.458 -21.108,21.108l0,45.687c0,11.65 9.458,21.108 21.108,21.108l42.217,0c11.65,0 21.108,-9.458 21.108,-21.108l0,-45.687Z" style="fill:#ebebeb;stroke:#000;stroke-width:0.73px;"/><text x="168.819px" y="273.225px" style="font-family:'ArialMT', 'Arial', sans-serif;font-size:43.597px;">4</text></g><path d="M84.8,151.832l55.104,0" style="fill:none;stroke:#000;stroke-width:1px;"/><path d="M182.12,88.27l0.121,19.61" style="fill:none;stroke:#000;stroke-width:1px;"/><path d="M182.12,195.784l0.121,19.61" style="fill:none;stroke:#000;stroke-width:1px;"/><path d="M224.337,149.786l51.146,-0.503" style="fill:none;stroke:#000;stroke-width:1px;"/></svg>